<mxfile host="Electron" agent="Mozilla/5.0 (Windows NT 10.0; Win64; x64) AppleWebKit/537.36 (KHTML, like Gecko) draw.io/28.1.2 Chrome/138.0.7204.243 Electron/37.4.0 Safari/537.36" version="28.1.2">
  <diagram name="ページ1" id="lOJqmfj-AF2IGyaFZty9">
    <mxGraphModel dx="786" dy="516" grid="0" gridSize="10" guides="1" tooltips="1" connect="1" arrows="1" fold="1" page="1" pageScale="1" pageWidth="827" pageHeight="1169" background="#ffffff" math="0" shadow="0">
      <root>
        <mxCell id="0" />
        <mxCell id="1" parent="0" />
        <mxCell id="XFLWg0oDXKJBOEz6R7yy-1" value="顧客" style="shape=umlActor;verticalLabelPosition=bottom;verticalAlign=top;html=1;outlineConnect=0;" parent="1" vertex="1">
          <mxGeometry x="71" y="61" width="30" height="60" as="geometry" />
        </mxCell>
        <mxCell id="XFLWg0oDXKJBOEz6R7yy-2" value="カート一覧画面" style="shape=umlBoundary;whiteSpace=wrap;html=1;fillColor=#d5e8d4;strokeColor=#82b366;" parent="1" vertex="1">
          <mxGeometry x="225" y="55" width="80" height="68" as="geometry" />
        </mxCell>
        <mxCell id="XFLWg0oDXKJBOEz6R7yy-3" value="" style="endArrow=classic;html=1;rounded=0;" parent="1" source="XFLWg0oDXKJBOEz6R7yy-1" target="XFLWg0oDXKJBOEz6R7yy-2" edge="1">
          <mxGeometry width="50" height="50" relative="1" as="geometry">
            <mxPoint x="373" y="288" as="sourcePoint" />
            <mxPoint x="423" y="238" as="targetPoint" />
          </mxGeometry>
        </mxCell>
        <mxCell id="XFLWg0oDXKJBOEz6R7yy-8" value="「購入」を選択" style="text;html=1;align=center;verticalAlign=middle;whiteSpace=wrap;rounded=0;" parent="1" vertex="1">
          <mxGeometry x="115" y="61" width="91" height="30" as="geometry" />
        </mxCell>
        <mxCell id="XFLWg0oDXKJBOEz6R7yy-13" value="クレジットカード番号入力画面" style="shape=umlBoundary;whiteSpace=wrap;html=1;fillColor=#d5e8d4;strokeColor=#82b366;" parent="1" vertex="1">
          <mxGeometry x="223" y="206.5" width="84" height="67" as="geometry" />
        </mxCell>
        <mxCell id="XFLWg0oDXKJBOEz6R7yy-15" value="" style="endArrow=classic;html=1;rounded=0;" parent="1" source="XFLWg0oDXKJBOEz6R7yy-1" target="XFLWg0oDXKJBOEz6R7yy-13" edge="1">
          <mxGeometry width="50" height="50" relative="1" as="geometry">
            <mxPoint x="373" y="288" as="sourcePoint" />
            <mxPoint x="423" y="238" as="targetPoint" />
          </mxGeometry>
        </mxCell>
        <mxCell id="XFLWg0oDXKJBOEz6R7yy-22" value="クレジットカード番号を入力&lt;div&gt;&lt;br&gt;&lt;/div&gt;" style="text;html=1;align=center;verticalAlign=middle;whiteSpace=wrap;rounded=0;" parent="1" vertex="1">
          <mxGeometry x="89" y="168" width="70" height="24" as="geometry" />
        </mxCell>
        <mxCell id="XFLWg0oDXKJBOEz6R7yy-25" value="決済完了画面" style="shape=umlBoundary;whiteSpace=wrap;html=1;fillColor=#d5e8d4;strokeColor=#82b366;" parent="1" vertex="1">
          <mxGeometry x="42.5" y="666" width="90" height="74" as="geometry" />
        </mxCell>
        <mxCell id="R0NO8YylpcySPE67eW28-7" value="" style="endArrow=classic;html=1;rounded=0;" edge="1" parent="1" source="XFLWg0oDXKJBOEz6R7yy-2" target="XFLWg0oDXKJBOEz6R7yy-13">
          <mxGeometry width="50" height="50" relative="1" as="geometry">
            <mxPoint x="379" y="195" as="sourcePoint" />
            <mxPoint x="429" y="145" as="targetPoint" />
          </mxGeometry>
        </mxCell>
        <mxCell id="R0NO8YylpcySPE67eW28-8" value="ログイン状態の確認" style="text;html=1;align=center;verticalAlign=middle;whiteSpace=wrap;rounded=0;" vertex="1" parent="1">
          <mxGeometry x="185" y="131" width="77" height="30" as="geometry" />
        </mxCell>
        <mxCell id="R0NO8YylpcySPE67eW28-12" value="エラーDB" style="ellipse;shape=umlEntity;whiteSpace=wrap;html=1;fillColor=#dae8fc;strokeColor=#6c8ebf;" vertex="1" parent="1">
          <mxGeometry x="410" y="285" width="80" height="80" as="geometry" />
        </mxCell>
        <mxCell id="R0NO8YylpcySPE67eW28-13" value="カートDB" style="ellipse;shape=umlEntity;whiteSpace=wrap;html=1;fillColor=#dae8fc;strokeColor=#6c8ebf;" vertex="1" parent="1">
          <mxGeometry x="168" y="535" width="80" height="80" as="geometry" />
        </mxCell>
        <mxCell id="R0NO8YylpcySPE67eW28-14" value="注文DB" style="ellipse;shape=umlEntity;whiteSpace=wrap;html=1;fillColor=#dae8fc;strokeColor=#6c8ebf;" vertex="1" parent="1">
          <mxGeometry x="549" y="544" width="80" height="80" as="geometry" />
        </mxCell>
        <mxCell id="R0NO8YylpcySPE67eW28-15" value="商品DB" style="ellipse;shape=umlEntity;whiteSpace=wrap;html=1;fillColor=#dae8fc;strokeColor=#6c8ebf;" vertex="1" parent="1">
          <mxGeometry x="453.5" y="401" width="80" height="80" as="geometry" />
        </mxCell>
        <mxCell id="R0NO8YylpcySPE67eW28-19" value="&lt;font style=&quot;font-size: 10px;&quot;&gt;エラーメッセージを表示&lt;/font&gt;" style="text;html=1;align=center;verticalAlign=middle;whiteSpace=wrap;rounded=0;fillColor=default;" vertex="1" parent="1">
          <mxGeometry x="286" y="285" width="85" height="12" as="geometry" />
        </mxCell>
        <mxCell id="R0NO8YylpcySPE67eW28-26" value="購入後処理" style="ellipse;shape=umlControl;whiteSpace=wrap;html=1;fillColor=#f8cecc;strokeColor=#b85450;" vertex="1" parent="1">
          <mxGeometry x="361.5" y="531" width="70" height="80" as="geometry" />
        </mxCell>
        <mxCell id="R0NO8YylpcySPE67eW28-33" value="決済API" style="ellipse;shape=umlEntity;whiteSpace=wrap;html=1;fillColor=#dae8fc;strokeColor=#6c8ebf;" vertex="1" parent="1">
          <mxGeometry x="35" y="361" width="80" height="80" as="geometry" />
        </mxCell>
        <mxCell id="R0NO8YylpcySPE67eW28-35" value="決済API&lt;div&gt;を実行&lt;/div&gt;" style="ellipse;shape=umlControl;whiteSpace=wrap;html=1;fillColor=#f8cecc;strokeColor=#b85450;" vertex="1" parent="1">
          <mxGeometry x="230" y="361" width="70" height="80" as="geometry" />
        </mxCell>
        <mxCell id="R0NO8YylpcySPE67eW28-39" value="" style="endArrow=classic;html=1;rounded=0;exitX=0;exitY=0.675;exitDx=0;exitDy=0;exitPerimeter=0;entryX=0.942;entryY=0.704;entryDx=0;entryDy=0;entryPerimeter=0;" edge="1" parent="1" source="R0NO8YylpcySPE67eW28-35" target="R0NO8YylpcySPE67eW28-33">
          <mxGeometry width="50" height="50" relative="1" as="geometry">
            <mxPoint x="221" y="418" as="sourcePoint" />
            <mxPoint x="125" y="422" as="targetPoint" />
          </mxGeometry>
        </mxCell>
        <mxCell id="R0NO8YylpcySPE67eW28-40" value="" style="endArrow=classic;html=1;rounded=0;exitX=0.988;exitY=0.413;exitDx=0;exitDy=0;exitPerimeter=0;entryX=0.071;entryY=0.396;entryDx=0;entryDy=0;entryPerimeter=0;" edge="1" parent="1" source="R0NO8YylpcySPE67eW28-33" target="R0NO8YylpcySPE67eW28-35">
          <mxGeometry width="50" height="50" relative="1" as="geometry">
            <mxPoint x="118" y="392" as="sourcePoint" />
            <mxPoint x="230" y="392" as="targetPoint" />
          </mxGeometry>
        </mxCell>
        <mxCell id="R0NO8YylpcySPE67eW28-42" value="決済リクエストの送信" style="text;html=1;align=center;verticalAlign=middle;whiteSpace=wrap;rounded=0;" vertex="1" parent="1">
          <mxGeometry x="138" y="421" width="87" height="30" as="geometry" />
        </mxCell>
        <mxCell id="R0NO8YylpcySPE67eW28-43" value="決済の判定結果" style="text;html=1;align=center;verticalAlign=middle;whiteSpace=wrap;rounded=0;" vertex="1" parent="1">
          <mxGeometry x="126" y="361" width="93" height="30" as="geometry" />
        </mxCell>
        <mxCell id="R0NO8YylpcySPE67eW28-48" value="" style="endArrow=classic;html=1;rounded=0;exitX=0.9;exitY=0.271;exitDx=0;exitDy=0;exitPerimeter=0;entryX=0.017;entryY=0.6;entryDx=0;entryDy=0;entryPerimeter=0;" edge="1" parent="1" source="R0NO8YylpcySPE67eW28-35" target="R0NO8YylpcySPE67eW28-12">
          <mxGeometry width="50" height="50" relative="1" as="geometry">
            <mxPoint x="443" y="302.67999999999995" as="sourcePoint" />
            <mxPoint x="512" y="206" as="targetPoint" />
          </mxGeometry>
        </mxCell>
        <mxCell id="R0NO8YylpcySPE67eW28-49" value="" style="endArrow=classic;html=1;rounded=0;exitX=0.046;exitY=0.796;exitDx=0;exitDy=0;exitPerimeter=0;entryX=0.995;entryY=0.496;entryDx=0;entryDy=0;entryPerimeter=0;" edge="1" parent="1" source="R0NO8YylpcySPE67eW28-12" target="R0NO8YylpcySPE67eW28-35">
          <mxGeometry width="50" height="50" relative="1" as="geometry">
            <mxPoint x="533" y="257" as="sourcePoint" />
            <mxPoint x="454" y="319" as="targetPoint" />
          </mxGeometry>
        </mxCell>
        <mxCell id="R0NO8YylpcySPE67eW28-51" value="&lt;font style=&quot;font-size: 10px;&quot;&gt;エラーメッセージ取得&lt;/font&gt;" style="text;html=1;align=center;verticalAlign=middle;whiteSpace=wrap;rounded=0;fillColor=none;" vertex="1" parent="1">
          <mxGeometry x="283" y="318" width="127" height="30" as="geometry" />
        </mxCell>
        <mxCell id="R0NO8YylpcySPE67eW28-55" value="" style="endArrow=classic;html=1;rounded=0;exitX=0.417;exitY=0.993;exitDx=0;exitDy=0;exitPerimeter=0;entryX=0.338;entryY=0.113;entryDx=0;entryDy=0;entryPerimeter=0;" edge="1" parent="1" source="XFLWg0oDXKJBOEz6R7yy-13" target="R0NO8YylpcySPE67eW28-35">
          <mxGeometry width="50" height="50" relative="1" as="geometry">
            <mxPoint x="454" y="419" as="sourcePoint" />
            <mxPoint x="258" y="355" as="targetPoint" />
          </mxGeometry>
        </mxCell>
        <mxCell id="R0NO8YylpcySPE67eW28-56" value="" style="endArrow=classic;html=1;rounded=0;entryX=0.714;entryY=0.978;entryDx=0;entryDy=0;entryPerimeter=0;exitX=0.7;exitY=0.121;exitDx=0;exitDy=0;exitPerimeter=0;" edge="1" parent="1" source="R0NO8YylpcySPE67eW28-35" target="XFLWg0oDXKJBOEz6R7yy-13">
          <mxGeometry width="50" height="50" relative="1" as="geometry">
            <mxPoint x="454" y="419" as="sourcePoint" />
            <mxPoint x="504" y="369" as="targetPoint" />
          </mxGeometry>
        </mxCell>
        <mxCell id="R0NO8YylpcySPE67eW28-62" value="" style="endArrow=classic;html=1;rounded=0;" edge="1" parent="1" source="R0NO8YylpcySPE67eW28-35" target="R0NO8YylpcySPE67eW28-26">
          <mxGeometry width="50" height="50" relative="1" as="geometry">
            <mxPoint x="191" y="554" as="sourcePoint" />
            <mxPoint x="241" y="504" as="targetPoint" />
          </mxGeometry>
        </mxCell>
        <mxCell id="R0NO8YylpcySPE67eW28-64" value="" style="endArrow=classic;html=1;rounded=0;exitX=0.971;exitY=0.392;exitDx=0;exitDy=0;exitPerimeter=0;entryX=0.013;entryY=0.367;entryDx=0;entryDy=0;entryPerimeter=0;" edge="1" parent="1" source="R0NO8YylpcySPE67eW28-26" target="R0NO8YylpcySPE67eW28-14">
          <mxGeometry width="50" height="50" relative="1" as="geometry">
            <mxPoint x="451" y="554" as="sourcePoint" />
            <mxPoint x="486" y="527" as="targetPoint" />
          </mxGeometry>
        </mxCell>
        <mxCell id="R0NO8YylpcySPE67eW28-65" value="" style="endArrow=classic;html=1;rounded=0;entryX=1;entryY=0.667;entryDx=0;entryDy=0;entryPerimeter=0;exitX=0.029;exitY=0.625;exitDx=0;exitDy=0;exitPerimeter=0;" edge="1" parent="1" source="R0NO8YylpcySPE67eW28-14" target="R0NO8YylpcySPE67eW28-26">
          <mxGeometry width="50" height="50" relative="1" as="geometry">
            <mxPoint x="451" y="554" as="sourcePoint" />
            <mxPoint x="501" y="504" as="targetPoint" />
          </mxGeometry>
        </mxCell>
        <mxCell id="R0NO8YylpcySPE67eW28-66" value="注文情報登録" style="text;html=1;align=center;verticalAlign=middle;whiteSpace=wrap;rounded=0;" vertex="1" parent="1">
          <mxGeometry x="441" y="539" width="105" height="30" as="geometry" />
        </mxCell>
        <mxCell id="R0NO8YylpcySPE67eW28-68" value="" style="endArrow=classic;html=1;rounded=0;exitX=0.155;exitY=0.954;exitDx=0;exitDy=0;exitPerimeter=0;" edge="1" parent="1" source="R0NO8YylpcySPE67eW28-26" target="XFLWg0oDXKJBOEz6R7yy-25">
          <mxGeometry width="50" height="50" relative="1" as="geometry">
            <mxPoint x="451" y="454" as="sourcePoint" />
            <mxPoint x="315.6474180523703" y="670.7433721223094" as="targetPoint" />
          </mxGeometry>
        </mxCell>
        <mxCell id="R0NO8YylpcySPE67eW28-71" value="" style="endArrow=classic;html=1;rounded=0;exitX=0.021;exitY=0.438;exitDx=0;exitDy=0;exitPerimeter=0;entryX=1.004;entryY=0.354;entryDx=0;entryDy=0;entryPerimeter=0;" edge="1" parent="1" source="R0NO8YylpcySPE67eW28-26" target="R0NO8YylpcySPE67eW28-13">
          <mxGeometry width="50" height="50" relative="1" as="geometry">
            <mxPoint x="292" y="554" as="sourcePoint" />
            <mxPoint x="342" y="504" as="targetPoint" />
          </mxGeometry>
        </mxCell>
        <mxCell id="R0NO8YylpcySPE67eW28-72" value="" style="endArrow=classic;html=1;rounded=0;entryX=0.04;entryY=0.696;entryDx=0;entryDy=0;entryPerimeter=0;exitX=0.996;exitY=0.621;exitDx=0;exitDy=0;exitPerimeter=0;" edge="1" parent="1" source="R0NO8YylpcySPE67eW28-13" target="R0NO8YylpcySPE67eW28-26">
          <mxGeometry width="50" height="50" relative="1" as="geometry">
            <mxPoint x="292" y="554" as="sourcePoint" />
            <mxPoint x="342" y="504" as="targetPoint" />
          </mxGeometry>
        </mxCell>
        <mxCell id="R0NO8YylpcySPE67eW28-73" value="" style="endArrow=classic;html=1;rounded=0;entryX=0.019;entryY=0.696;entryDx=0;entryDy=0;entryPerimeter=0;exitX=0.536;exitY=0.104;exitDx=0;exitDy=0;exitPerimeter=0;" edge="1" parent="1" source="R0NO8YylpcySPE67eW28-26" target="R0NO8YylpcySPE67eW28-15">
          <mxGeometry width="50" height="50" relative="1" as="geometry">
            <mxPoint x="292" y="554" as="sourcePoint" />
            <mxPoint x="342" y="504" as="targetPoint" />
          </mxGeometry>
        </mxCell>
        <mxCell id="R0NO8YylpcySPE67eW28-74" value="" style="endArrow=classic;html=1;rounded=0;exitX=0.21;exitY=0.946;exitDx=0;exitDy=0;exitPerimeter=0;entryX=0.869;entryY=0.204;entryDx=0;entryDy=0;entryPerimeter=0;" edge="1" parent="1" source="R0NO8YylpcySPE67eW28-15" target="R0NO8YylpcySPE67eW28-26">
          <mxGeometry width="50" height="50" relative="1" as="geometry">
            <mxPoint x="292" y="554" as="sourcePoint" />
            <mxPoint x="523" y="503" as="targetPoint" />
          </mxGeometry>
        </mxCell>
        <mxCell id="R0NO8YylpcySPE67eW28-75" value="成功" style="text;html=1;align=center;verticalAlign=middle;whiteSpace=wrap;rounded=0;" vertex="1" parent="1">
          <mxGeometry x="271" y="459" width="60" height="30" as="geometry" />
        </mxCell>
        <mxCell id="R0NO8YylpcySPE67eW28-76" value="在庫数更新" style="text;html=1;align=center;verticalAlign=middle;whiteSpace=wrap;rounded=0;" vertex="1" parent="1">
          <mxGeometry x="365" y="475" width="63" height="30" as="geometry" />
        </mxCell>
        <mxCell id="R0NO8YylpcySPE67eW28-77" value="カートの削除" style="text;html=1;align=center;verticalAlign=middle;whiteSpace=wrap;rounded=0;" vertex="1" parent="1">
          <mxGeometry x="273" y="527" width="60" height="30" as="geometry" />
        </mxCell>
        <mxCell id="R0NO8YylpcySPE67eW28-78" value="&lt;font style=&quot;font-size: 10px;&quot;&gt;エラーメッセージ&lt;/font&gt;" style="text;html=1;align=center;verticalAlign=middle;whiteSpace=wrap;rounded=0;fillColor=none;" vertex="1" parent="1">
          <mxGeometry x="322" y="376" width="127" height="30" as="geometry" />
        </mxCell>
        <mxCell id="R0NO8YylpcySPE67eW28-80" value="削除完了" style="text;html=1;align=center;verticalAlign=middle;whiteSpace=wrap;rounded=0;" vertex="1" parent="1">
          <mxGeometry x="271" y="581" width="60" height="30" as="geometry" />
        </mxCell>
        <mxCell id="R0NO8YylpcySPE67eW28-81" value="登録完了" style="text;html=1;align=center;verticalAlign=middle;whiteSpace=wrap;rounded=0;" vertex="1" parent="1">
          <mxGeometry x="453.5" y="590" width="60" height="30" as="geometry" />
        </mxCell>
        <mxCell id="R0NO8YylpcySPE67eW28-82" value="更新完了" style="text;html=1;align=center;verticalAlign=middle;whiteSpace=wrap;rounded=0;" vertex="1" parent="1">
          <mxGeometry x="453.5" y="497" width="60" height="30" as="geometry" />
        </mxCell>
      </root>
    </mxGraphModel>
  </diagram>
</mxfile>
